HIERARCHY
ROOT Hips
{
	OFFSET	0.00	0.00	0.00
	CHANNELS 6 Xposition Yposition Zposition Zrotation Xrotation Yrotation
	JOINT Spine
	{
		OFFSET	 0.00	0.01	 0.00
		CHANNELS 3 Zrotation Xrotation Yrotation
		JOINT Spine1
		{
			OFFSET	 0.00	 2.45913012437421	 0.00
			CHANNELS 3 Zrotation Xrotation Yrotation
            JOINT Neck
            {
                OFFSET	 0.00	 2.48462964506057	 0.00
                CHANNELS 3 Zrotation Xrotation Yrotation
                JOINT Head
                {
                    OFFSET	 0.00	 0.927524780924562	 0.00
                    CHANNELS 3 Zrotation Xrotation Yrotation
                    End Site 
                    {
                        OFFSET	 0.00	 1.14999962169752	 0.00
                    }
                }
            }
			JOINT LeftShoulder
			{
				OFFSET	 0.00	 2.48462964506057	 0.00
				CHANNELS 3 Zrotation Xrotation Yrotation
				JOINT LeftUpArm
				{
					OFFSET	 0.00	 1.24881979654096	 0.00
					CHANNELS 3 Zrotation Xrotation Yrotation
					JOINT LeftForeArm
					{
						OFFSET	 0.00	2.59758046908119	 0.00
						CHANNELS 3 Zrotation Xrotation Yrotation
						JOINT LeftHand
						{
							OFFSET	 0.00	2.45542024364365	 0.00
							CHANNELS 3 Zrotation Xrotation Yrotation
							JOINT LeftHandThumb 
							{
								OFFSET	 0.00	0.00	 0.00
								CHANNELS 3 Zrotation Xrotation Yrotation
								End Site
								{
									OFFSET	 0.00	0.00	1.00000003353624
								}
							}
							JOINT L_Wrist_End 
							{
								OFFSET	 0.00	0.99999967115358	 0.00
								CHANNELS 3 Zrotation Xrotation Yrotation
								End Site 
								{
									OFFSET	 0.00	 0.00	 0.00
								}
							}
						}
					}
				}
			}
			JOINT RightShoulder
			{
				OFFSET	 0.00	 2.48462964506057	 0.00
				CHANNELS 3 Zrotation Xrotation Yrotation
				JOINT RightUpArm
				{
					OFFSET	 0.00	 1.24881979654096	 0.00
					CHANNELS 3 Zrotation Xrotation Yrotation
					JOINT RightForeArm
					{
						OFFSET	 0.00	2.59758046908119	 0.00
						CHANNELS 3 Zrotation Xrotation Yrotation
						JOINT RightHand
						{
							OFFSET	 0.00	2.45542024364365	 0.00
							CHANNELS 3 Zrotation Xrotation Yrotation
							JOINT RightHandThumb 
							{
								OFFSET	 0.00	0.00	 0.00
								CHANNELS 3 Zrotation Xrotation Yrotation
								End Site
								{
									OFFSET	 0.00	0.00	1.00000003353624
								}
							}
							JOINT R_Wrist_End 
							{
								OFFSET	 0.00	0.99999967115358	 0.00
								CHANNELS 3 Zrotation Xrotation Yrotation
								End Site 
								{
									OFFSET	 0.00	 0.00	 0.00
								}
							}
						}
					}
				}
			}
		}
	}
	JOINT LeftUpLeg
	{
		OFFSET	 1.2719394002717	 0.00	 0.00
		CHANNELS 3 Zrotation Xrotation Yrotation
		JOINT LeftLowLeg
		{
			OFFSET	 0.00	-4.3429100912261	 0.00
			CHANNELS 3 Zrotation Xrotation Yrotation
			JOINT LeftFoot
			{
				OFFSET	 0.00	-4.48767017425826	 0.00
				CHANNELS 3 Zrotation Xrotation Yrotation
				JOINT LeftToeBase
                {
                    OFFSET	 0.00	0.00	 1.51507020887566
                    CHANNELS 3 Zrotation Xrotation Yrotation
                    End Site 
                    {
                        OFFSET	 0.00	0.00	 0.75000010571191
                    }
                }
			}
		}
	}
	JOINT RightUpLeg
	{
		OFFSET	 -1.2719393604653	 0.00	 0.00
		CHANNELS 3 Zrotation Xrotation Yrotation
		JOINT RightLowLeg
		{
			OFFSET	 0.00	-4.3429100912261	 0.00
			CHANNELS 3 Zrotation Xrotation Yrotation
			JOINT RightFoot
			{
				OFFSET	 0.00	-4.48767017425826	 0.00
				CHANNELS 3 Zrotation Xrotation Yrotation
				JOINT RightToeBase
                {
                    OFFSET	 0.00	0.00	 1.51507020887566
                    CHANNELS 3 Zrotation Xrotation Yrotation
                    End Site 
                    {
                        OFFSET	 0.00	0.00	 0.749999965609858
                    }
                }   
			}
		}
	}
}
MOTION 
Frames:	6 
Frame Time: 0.02 
 -5.7368402099609375 -12.233399658203124 10.353499755859374 27.338 83.9612 37.9481 4.60699 -17.133 0.641679 3.84989 30.7737 -1.37232 1.07942 55.5468 -6.39577 16.1507 -57.8148 2.35162 -120.6756 0.564285 -12.5364 -38.4132 -12.7226 34.1698 0.0 16.6585 0.0 -9.94918 -11.3392 3.11952 0.0 0.0 0.0 0.0 0.0 0.0 113.7944 4.07843 5.44154 37.1503 14.6817 -6.999 0.0 27.5698 0.0 -1.32732 4.87548 0.437243 0.0 0.0 0.0 0.0 0.0 0.0 9.55407 -7.11334 -6.2103 0.0 18.8782 0.0 -9.8509 10.530661 1.8996 0.0 -24.78878 0.0 9.63531 8.37669 7.78854 0.0 5.24365 0.0 15.7438 6.1124296 -27.1201 0.0 -10.289909 0.0 
  -5.773800048828125 -12.208299560546875 10.35699951171875 28.3158 84.0376 37.603 4.39824 -17.0459 0.499352 4.41132 30.7773 -1.30883 1.05064 55.4866 -6.52559 16.2032 -57.9872 1.81774 -120.9982 0.63076 -12.0426 -38.4158 -12.4541 34.2799 0.0 16.57 0.0 -10.1137 -11.0775 3.28314 0.0 0.0 0.0 0.0 0.0 0.0 113.7732 4.07945 5.16398 37.4402 14.3522 -7.18132 0.0 26.8129 0.0 -1.2393 4.61677 -0.17604 0.0 0.0 0.0 0.0 0.0 0.0 9.64987 -7.0081 -6.76659 0.0 20.5029 0.0 -9.38576 9.80233 2.94745 0.0 -24.92346 0.0 9.59012 8.04607 7.81568 0.0 5.38082 0.0 15.8332 6.0007896 -27.6429 0.0 -10.21894 0.0 
  -5.808250122070312 -12.185899658203125 10.3602001953125 29.3962 84.0554 37.181 3.9126 -17.0172 0.128336 5.35434 30.9899 -1.30597 0.8437 55.1644 -6.51364 15.8935 -58.0837 1.02649 -121.3769 0.675355 -12.1273 -38.4256 -12.3619 34.3353 0.0 16.6228 0.0 -10.1309 -11.0871 4.1143 0.0 0.0 0.0 0.0 0.0 0.0 113.5077 4.05246 5.00638 37.9016 14.0862 -7.41088 0.0 25.8079 0.0 -0.755626 4.26869 -0.78298 0.0 0.0 0.0 0.0 0.0 0.0 9.8502 -6.78856 -7.18766 0.0 21.9751 0.0 -9.09178 9.01192 4.04701 0.0 -24.74477 0.0 9.57969 7.76498 7.54547 0.0 5.54533 0.0 15.8512 5.9792204 -27.9672 0.0 -10.16133 0.0 
  -5.83843994140625 -12.164599609375 10.364000244140625 30.4507 84.0755 36.7705 3.34198 -17.062 -0.307037 6.36562 31.2639 -1.32677 0.529327 54.7723 -6.37303 15.4345 -58.0761 0.129213 -121.769104 0.753766 -12.2254 -38.3816 -12.1915 34.1024 0.0 16.8227 0.0 -10.0063 -11.2518 4.44548 0.0 0.0 0.0 0.0 0.0 0.0 113.2211 4.00056 4.99079 38.4256 13.7592 -7.73924 0.0 24.6118 0.0 -0.0827087 3.78694 -1.81508 0.0 0.0 0.0 0.0 0.0 0.0 10.1082 -6.49755 -7.58226 0.0 23.279 0.0 -8.71947 8.34217 5.25812 0.0 -24.65645 0.0 9.55206 7.53058 7.44043 0.0 5.66503 0.0 15.8752 5.98314 -28.3896 0.0 -10.14332 0.0 
  -5.864439697265625 -12.143599853515624 10.3668994140625 31.2383 84.1003 36.6962 2.75369 -17.0928 -0.814995 7.3315 31.371 -1.41171 0.124166 54.5396 -6.10699 14.9526 -58.1058 -0.736617 -122.1867 0.895404 -12.3181 -38.181 -12.0946 33.9765 0.0 17.1005 0.0 -9.42266 -11.1472 4.47295 0.0 0.0 0.0 0.0 0.0 0.0 113.0397 3.91651 4.88841 38.9039 13.4148 -8.17464 0.0 23.3124 0.0 0.510847 3.16631 -3.24741 0.0 0.0 0.0 0.0 0.0 0.0 10.4152 -6.21629 -8.04719 0.0 24.4615 0.0 -8.18999 7.72756 6.49609 0.0 -24.51976 0.0 9.53698 7.3084 7.20955 0.0 5.76202 0.0 15.9477 5.94024 -28.7477 0.0 -10.09639 0.0 
  -5.8864501953125 -12.121600341796874 10.368499755859375 31.7941 84.1219 36.8618 2.26008 -17.1393 -1.28203 8.08978 31.4391 -1.54169 -0.115714 54.2957 -5.99815 14.4938 -58.0615 -1.3885 -122.4916 0.959138 -12.3407 -37.9792 -11.783 33.8416 0.0 17.3926 0.0 -8.63034 -11.0192 4.1955 0.0 0.0 0.0 0.0 0.0 0.0 112.9836 3.83638 4.82183 39.3487 12.9914 -8.68604 0.0 21.9919 0.0 1.30095 2.45196 -5.04025 0.0 0.0 0.0 0.0 0.0 0.0 10.7495 -5.89208 -8.6369 0.0 25.4307 0.0 -7.29105 7.19024 7.81898 0.0 -24.41568 0.0 9.53399 7.14128 7.1644 0.0 5.76508 0.0 16.0146 5.85833 -29.3129 0.0 -10.10614 0.0 
